<mxfile host="app.diagrams.net" modified="2021-10-06T16:05:44.458Z" agent="5.0 (Windows NT 10.0; Win64; x64) AppleWebKit/537.36 (KHTML, like Gecko) Chrome/94.0.4606.71 Safari/537.36" etag="U-VCC0Ayo-yWRv4w5bKf" version="15.4.3" type="github">
  <diagram id="C5RBs43oDa-KdzZeNtuy" name="Page-1">
    <mxGraphModel dx="1085" dy="491" grid="1" gridSize="10" guides="1" tooltips="1" connect="1" arrows="1" fold="1" page="1" pageScale="1" pageWidth="827" pageHeight="1169" math="0" shadow="0">
      <root>
        <mxCell id="WIyWlLk6GJQsqaUBKTNV-0" />
        <mxCell id="WIyWlLk6GJQsqaUBKTNV-1" parent="WIyWlLk6GJQsqaUBKTNV-0" />
        <mxCell id="cWbtxY0O9UEOW8mUnpPE-8" style="edgeStyle=orthogonalEdgeStyle;rounded=0;orthogonalLoop=1;jettySize=auto;html=1;exitX=0.5;exitY=1;exitDx=0;exitDy=0;entryX=0.5;entryY=0;entryDx=0;entryDy=0;" edge="1" parent="WIyWlLk6GJQsqaUBKTNV-1" source="cWbtxY0O9UEOW8mUnpPE-0" target="cWbtxY0O9UEOW8mUnpPE-3">
          <mxGeometry relative="1" as="geometry" />
        </mxCell>
        <mxCell id="cWbtxY0O9UEOW8mUnpPE-0" value="Inicio" style="ellipse;whiteSpace=wrap;html=1;" vertex="1" parent="WIyWlLk6GJQsqaUBKTNV-1">
          <mxGeometry x="325" y="140" width="120" height="40" as="geometry" />
        </mxCell>
        <mxCell id="cWbtxY0O9UEOW8mUnpPE-9" style="edgeStyle=orthogonalEdgeStyle;rounded=0;orthogonalLoop=1;jettySize=auto;html=1;exitX=0.5;exitY=1;exitDx=0;exitDy=0;entryX=0.5;entryY=0;entryDx=0;entryDy=0;" edge="1" parent="WIyWlLk6GJQsqaUBKTNV-1" source="cWbtxY0O9UEOW8mUnpPE-3" target="cWbtxY0O9UEOW8mUnpPE-4">
          <mxGeometry relative="1" as="geometry" />
        </mxCell>
        <mxCell id="cWbtxY0O9UEOW8mUnpPE-3" value="Entrada número 1" style="shape=parallelogram;perimeter=parallelogramPerimeter;whiteSpace=wrap;html=1;fixedSize=1;" vertex="1" parent="WIyWlLk6GJQsqaUBKTNV-1">
          <mxGeometry x="320" y="220" width="130" height="40" as="geometry" />
        </mxCell>
        <mxCell id="cWbtxY0O9UEOW8mUnpPE-10" style="edgeStyle=orthogonalEdgeStyle;rounded=0;orthogonalLoop=1;jettySize=auto;html=1;exitX=0;exitY=0.5;exitDx=0;exitDy=0;entryX=0.5;entryY=0;entryDx=0;entryDy=0;" edge="1" parent="WIyWlLk6GJQsqaUBKTNV-1" source="cWbtxY0O9UEOW8mUnpPE-4" target="cWbtxY0O9UEOW8mUnpPE-5">
          <mxGeometry relative="1" as="geometry" />
        </mxCell>
        <mxCell id="cWbtxY0O9UEOW8mUnpPE-13" style="edgeStyle=orthogonalEdgeStyle;rounded=0;orthogonalLoop=1;jettySize=auto;html=1;exitX=1;exitY=0.5;exitDx=0;exitDy=0;entryX=0.625;entryY=0;entryDx=0;entryDy=0;entryPerimeter=0;" edge="1" parent="WIyWlLk6GJQsqaUBKTNV-1" source="cWbtxY0O9UEOW8mUnpPE-4" target="cWbtxY0O9UEOW8mUnpPE-7">
          <mxGeometry relative="1" as="geometry" />
        </mxCell>
        <mxCell id="cWbtxY0O9UEOW8mUnpPE-4" value="¿Este número es de dos cifras?" style="rhombus;whiteSpace=wrap;html=1;" vertex="1" parent="WIyWlLk6GJQsqaUBKTNV-1">
          <mxGeometry x="313" y="290" width="144" height="80" as="geometry" />
        </mxCell>
        <mxCell id="cWbtxY0O9UEOW8mUnpPE-12" style="edgeStyle=orthogonalEdgeStyle;rounded=0;orthogonalLoop=1;jettySize=auto;html=1;exitX=1;exitY=0.5;exitDx=0;exitDy=0;entryX=0.5;entryY=1;entryDx=0;entryDy=0;" edge="1" parent="WIyWlLk6GJQsqaUBKTNV-1" source="cWbtxY0O9UEOW8mUnpPE-5" target="cWbtxY0O9UEOW8mUnpPE-4">
          <mxGeometry relative="1" as="geometry" />
        </mxCell>
        <mxCell id="cWbtxY0O9UEOW8mUnpPE-5" value="Pedir de nuevo numero_1" style="rounded=0;whiteSpace=wrap;html=1;" vertex="1" parent="WIyWlLk6GJQsqaUBKTNV-1">
          <mxGeometry x="180" y="360" width="120" height="60" as="geometry" />
        </mxCell>
        <mxCell id="cWbtxY0O9UEOW8mUnpPE-19" style="edgeStyle=orthogonalEdgeStyle;rounded=0;orthogonalLoop=1;jettySize=auto;html=1;exitX=0.5;exitY=1;exitDx=0;exitDy=0;entryX=0.5;entryY=0;entryDx=0;entryDy=0;" edge="1" parent="WIyWlLk6GJQsqaUBKTNV-1" source="cWbtxY0O9UEOW8mUnpPE-7" target="cWbtxY0O9UEOW8mUnpPE-17">
          <mxGeometry relative="1" as="geometry" />
        </mxCell>
        <mxCell id="cWbtxY0O9UEOW8mUnpPE-7" value="Entrada numero_2" style="shape=parallelogram;perimeter=parallelogramPerimeter;whiteSpace=wrap;html=1;fixedSize=1;" vertex="1" parent="WIyWlLk6GJQsqaUBKTNV-1">
          <mxGeometry x="480" y="360" width="120" height="60" as="geometry" />
        </mxCell>
        <mxCell id="cWbtxY0O9UEOW8mUnpPE-23" style="edgeStyle=orthogonalEdgeStyle;rounded=0;orthogonalLoop=1;jettySize=auto;html=1;exitX=1;exitY=0.5;exitDx=0;exitDy=0;entryX=0.5;entryY=0;entryDx=0;entryDy=0;" edge="1" parent="WIyWlLk6GJQsqaUBKTNV-1" source="cWbtxY0O9UEOW8mUnpPE-17" target="cWbtxY0O9UEOW8mUnpPE-20">
          <mxGeometry relative="1" as="geometry">
            <mxPoint x="700" y="600" as="targetPoint" />
          </mxGeometry>
        </mxCell>
        <mxCell id="cWbtxY0O9UEOW8mUnpPE-24" style="edgeStyle=orthogonalEdgeStyle;rounded=0;orthogonalLoop=1;jettySize=auto;html=1;exitX=0;exitY=0.5;exitDx=0;exitDy=0;entryX=0.5;entryY=0;entryDx=0;entryDy=0;" edge="1" parent="WIyWlLk6GJQsqaUBKTNV-1" source="cWbtxY0O9UEOW8mUnpPE-17" target="cWbtxY0O9UEOW8mUnpPE-21">
          <mxGeometry relative="1" as="geometry" />
        </mxCell>
        <mxCell id="cWbtxY0O9UEOW8mUnpPE-17" value="¿Este número es de dos cifras?" style="rhombus;whiteSpace=wrap;html=1;" vertex="1" parent="WIyWlLk6GJQsqaUBKTNV-1">
          <mxGeometry x="468" y="470" width="144" height="80" as="geometry" />
        </mxCell>
        <mxCell id="cWbtxY0O9UEOW8mUnpPE-29" style="edgeStyle=orthogonalEdgeStyle;rounded=0;orthogonalLoop=1;jettySize=auto;html=1;exitX=0.5;exitY=1;exitDx=0;exitDy=0;" edge="1" parent="WIyWlLk6GJQsqaUBKTNV-1" source="cWbtxY0O9UEOW8mUnpPE-20" target="cWbtxY0O9UEOW8mUnpPE-22">
          <mxGeometry relative="1" as="geometry" />
        </mxCell>
        <mxCell id="cWbtxY0O9UEOW8mUnpPE-20" value="Sumar numero_1 y numero_2" style="rounded=0;whiteSpace=wrap;html=1;" vertex="1" parent="WIyWlLk6GJQsqaUBKTNV-1">
          <mxGeometry x="590" y="540" width="120" height="60" as="geometry" />
        </mxCell>
        <mxCell id="cWbtxY0O9UEOW8mUnpPE-25" style="edgeStyle=orthogonalEdgeStyle;rounded=0;orthogonalLoop=1;jettySize=auto;html=1;exitX=1;exitY=0.5;exitDx=0;exitDy=0;entryX=0.5;entryY=1;entryDx=0;entryDy=0;" edge="1" parent="WIyWlLk6GJQsqaUBKTNV-1" source="cWbtxY0O9UEOW8mUnpPE-21" target="cWbtxY0O9UEOW8mUnpPE-17">
          <mxGeometry relative="1" as="geometry" />
        </mxCell>
        <mxCell id="cWbtxY0O9UEOW8mUnpPE-21" value="Entrada numero_2" style="rounded=0;whiteSpace=wrap;html=1;" vertex="1" parent="WIyWlLk6GJQsqaUBKTNV-1">
          <mxGeometry x="354" y="540" width="120" height="60" as="geometry" />
        </mxCell>
        <mxCell id="cWbtxY0O9UEOW8mUnpPE-22" value="Fin" style="ellipse;whiteSpace=wrap;html=1;fillColor=none;" vertex="1" parent="WIyWlLk6GJQsqaUBKTNV-1">
          <mxGeometry x="590" y="640" width="120" height="40" as="geometry" />
        </mxCell>
        <mxCell id="cWbtxY0O9UEOW8mUnpPE-26" value="Si" style="text;html=1;strokeColor=none;fillColor=none;align=center;verticalAlign=middle;whiteSpace=wrap;rounded=0;" vertex="1" parent="WIyWlLk6GJQsqaUBKTNV-1">
          <mxGeometry x="510" y="300" width="60" height="30" as="geometry" />
        </mxCell>
        <mxCell id="cWbtxY0O9UEOW8mUnpPE-27" value="No" style="text;html=1;strokeColor=none;fillColor=none;align=center;verticalAlign=middle;whiteSpace=wrap;rounded=0;" vertex="1" parent="WIyWlLk6GJQsqaUBKTNV-1">
          <mxGeometry x="220" y="300" width="60" height="30" as="geometry" />
        </mxCell>
        <mxCell id="cWbtxY0O9UEOW8mUnpPE-28" value="Si" style="text;html=1;strokeColor=none;fillColor=none;align=center;verticalAlign=middle;whiteSpace=wrap;rounded=0;" vertex="1" parent="WIyWlLk6GJQsqaUBKTNV-1">
          <mxGeometry x="660" y="480" width="60" height="30" as="geometry" />
        </mxCell>
        <mxCell id="cWbtxY0O9UEOW8mUnpPE-30" value="No" style="text;html=1;strokeColor=none;fillColor=none;align=center;verticalAlign=middle;whiteSpace=wrap;rounded=0;" vertex="1" parent="WIyWlLk6GJQsqaUBKTNV-1">
          <mxGeometry x="353" y="480" width="60" height="30" as="geometry" />
        </mxCell>
      </root>
    </mxGraphModel>
  </diagram>
</mxfile>
